<svg xmlns="http://www.w3.org/2000/svg" viewBox="0 0 629.28 456.67" width="629.28" height="456.67" role="img" aria-label="Tad Kebab">
  <title>Tad Kebab</title>
  <g transform="translate(34.08,147.68) scale(0.16)">
      <g stroke="#2B2119" stroke-width="78.1" stroke-linejoin="round" fill="#2B2119">
      <g transform="translate(733.5,0)"><path transform="translate(0,0) scale(1,-1)" d="M186 24V454H47Q36 454 28 482Q20 510 20 565.5Q20 621 32 665.5Q44 710 64 710H605Q620 710 625.5 682Q631 654 631 601Q631 548 620 501Q609 454 590 454H465V24Q465 13 403.5 6.5Q342 0 280.5 0Q219 0 202.5 5.5Q186 11 186 24Z"/>
      <path transform="translate(561,0) scale(1,-1)" d="M10 48Q10 72 99 354.5Q188 637 201 680Q206 693 281.5 701.5Q357 710 443.5 710Q530 710 539 680Q728 52 728 42Q728 32 716 22Q688 0 605 0Q428 0 424 42L417 107H321L316 51Q314 22 285.5 11Q257 0 183 0Q109 0 59.5 13.5Q10 27 10 48ZM396 297 381 477H359L342 297Z"/>
      <path transform="translate(1309,0) scale(1,-1)" d="M359 0H123Q74 0 57 7Q40 14 40 30V661Q40 687 62 698.5Q84 710 138 710H363Q555 710 628 634.5Q701 559 701 360Q701 161 625 80.5Q549 0 359 0ZM351 561Q327 561 319 557V153L357 149Q387 149 402.5 197Q418 245 418 363Q418 481 402 521Q386 561 351 561Z"/></g>
      <g transform="translate(0,923)"><path transform="translate(0,0) scale(1,-1)" d="M40 31V644Q40 670 96.5 690Q153 710 227 710Q288 710 306 686Q319 669 319 655V490H327Q327 495 357 573Q414 720 440 720Q489 720 578 691Q621 677 652 650.5Q683 624 683 592Q683 572 642.5 514.5Q602 457 520 361Q539 341 568 310Q597 279 645.5 217.5Q694 156 694 130Q694 104 647 69.5Q600 35 547 13.5Q494 -8 468 -8Q451 -8 421.5 43.5Q392 95 350 198L319 161V31Q319 18 257.5 10Q196 2 135 2Q74 2 57 9Q40 16 40 31Z"/>
      <path transform="translate(719,0) scale(1,-1)" d="M547 0H123Q74 0 57 7Q40 14 40 29V662Q40 688 63.5 699Q87 710 148 710H550Q571 710 571 640.5Q571 571 562 534.5Q553 498 538 498Q473 498 319 511V444Q467 450 512 450Q539 450 539 387Q539 324 528.5 291.5Q518 259 500 259L319 263V199Q493 212 559 212Q580 212 580 142Q580 72 571 36Q562 0 547 0Z"/>
      <path transform="translate(1339,0) scale(1,-1)" d="M343 0H124Q74 0 57 7Q40 14 40 29V672Q40 720 329 720Q495 720 558 688Q622 655 640 604Q650 574 650 534Q650 456 623.5 417Q597 378 566 373Q613 363 644 327Q675 291 675 205Q675 105 614 57Q561 15 452 4Q406 0 343 0ZM344 436Q395 436 395 504Q395 538 381.5 554.5Q368 571 351 571H319V436ZM319 149H344Q395 149 395 217Q395 251 381.5 267.5Q368 284 351 284H319Z"/>
      <path transform="translate(2054,0) scale(1,-1)" d="M10 48Q10 72 99 354.5Q188 637 201 680Q206 693 281.5 701.5Q357 710 443.5 710Q530 710 539 680Q728 52 728 42Q728 32 716 22Q688 0 605 0Q428 0 424 42L417 107H321L316 51Q314 22 285.5 11Q257 0 183 0Q109 0 59.5 13.5Q10 27 10 48ZM396 297 381 477H359L342 297Z"/>
      <path transform="translate(2802,0) scale(1,-1)" d="M343 0H124Q74 0 57 7Q40 14 40 29V672Q40 720 329 720Q495 720 558 688Q622 655 640 604Q650 574 650 534Q650 456 623.5 417Q597 378 566 373Q613 363 644 327Q675 291 675 205Q675 105 614 57Q561 15 452 4Q406 0 343 0ZM344 436Q395 436 395 504Q395 538 381.5 554.5Q368 571 351 571H319V436ZM319 149H344Q395 149 395 217Q395 251 381.5 267.5Q368 284 351 284H319Z"/></g>
      </g>
      <g fill="#FBF2E2">
      <g transform="translate(733.5,0)"><path transform="translate(0,0) scale(1,-1)" d="M186 24V454H47Q36 454 28 482Q20 510 20 565.5Q20 621 32 665.5Q44 710 64 710H605Q620 710 625.5 682Q631 654 631 601Q631 548 620 501Q609 454 590 454H465V24Q465 13 403.5 6.5Q342 0 280.5 0Q219 0 202.5 5.5Q186 11 186 24Z"/>
      <path transform="translate(561,0) scale(1,-1)" d="M10 48Q10 72 99 354.5Q188 637 201 680Q206 693 281.5 701.5Q357 710 443.5 710Q530 710 539 680Q728 52 728 42Q728 32 716 22Q688 0 605 0Q428 0 424 42L417 107H321L316 51Q314 22 285.5 11Q257 0 183 0Q109 0 59.5 13.5Q10 27 10 48ZM396 297 381 477H359L342 297Z"/>
      <path transform="translate(1309,0) scale(1,-1)" d="M359 0H123Q74 0 57 7Q40 14 40 30V661Q40 687 62 698.5Q84 710 138 710H363Q555 710 628 634.5Q701 559 701 360Q701 161 625 80.5Q549 0 359 0ZM351 561Q327 561 319 557V153L357 149Q387 149 402.5 197Q418 245 418 363Q418 481 402 521Q386 561 351 561Z"/></g>
      <g transform="translate(0,923)"><path transform="translate(0,0) scale(1,-1)" d="M40 31V644Q40 670 96.5 690Q153 710 227 710Q288 710 306 686Q319 669 319 655V490H327Q327 495 357 573Q414 720 440 720Q489 720 578 691Q621 677 652 650.5Q683 624 683 592Q683 572 642.5 514.5Q602 457 520 361Q539 341 568 310Q597 279 645.5 217.5Q694 156 694 130Q694 104 647 69.5Q600 35 547 13.5Q494 -8 468 -8Q451 -8 421.5 43.5Q392 95 350 198L319 161V31Q319 18 257.5 10Q196 2 135 2Q74 2 57 9Q40 16 40 31Z"/>
      <path transform="translate(719,0) scale(1,-1)" d="M547 0H123Q74 0 57 7Q40 14 40 29V662Q40 688 63.5 699Q87 710 148 710H550Q571 710 571 640.5Q571 571 562 534.5Q553 498 538 498Q473 498 319 511V444Q467 450 512 450Q539 450 539 387Q539 324 528.5 291.5Q518 259 500 259L319 263V199Q493 212 559 212Q580 212 580 142Q580 72 571 36Q562 0 547 0Z"/>
      <path transform="translate(1339,0) scale(1,-1)" d="M343 0H124Q74 0 57 7Q40 14 40 29V672Q40 720 329 720Q495 720 558 688Q622 655 640 604Q650 574 650 534Q650 456 623.5 417Q597 378 566 373Q613 363 644 327Q675 291 675 205Q675 105 614 57Q561 15 452 4Q406 0 343 0ZM344 436Q395 436 395 504Q395 538 381.5 554.5Q368 571 351 571H319V436ZM319 149H344Q395 149 395 217Q395 251 381.5 267.5Q368 284 351 284H319Z"/>
      <path transform="translate(2054,0) scale(1,-1)" d="M10 48Q10 72 99 354.5Q188 637 201 680Q206 693 281.5 701.5Q357 710 443.5 710Q530 710 539 680Q728 52 728 42Q728 32 716 22Q688 0 605 0Q428 0 424 42L417 107H321L316 51Q314 22 285.5 11Q257 0 183 0Q109 0 59.5 13.5Q10 27 10 48ZM396 297 381 477H359L342 297Z"/>
      <path transform="translate(2802,0) scale(1,-1)" d="M343 0H124Q74 0 57 7Q40 14 40 29V672Q40 720 329 720Q495 720 558 688Q622 655 640 604Q650 574 650 534Q650 456 623.5 417Q597 378 566 373Q613 363 644 327Q675 291 675 205Q675 105 614 57Q561 15 452 4Q406 0 343 0ZM344 436Q395 436 395 504Q395 538 381.5 554.5Q368 571 351 571H319V436ZM319 149H344Q395 149 395 217Q395 251 381.5 267.5Q368 284 351 284H319Z"/></g>
      </g>
      <path d="M187.79,1166.17 H3294.71 L3507,1207 L3294.71,1247.83 H187.79 Z" fill="#2B2119"/><circle cx="93.9" cy="1207" r="92.02" fill="none" stroke="#2B2119" stroke-width="63.69"/>
      <g transform="translate(657.13,1647.2) scale(0.14013)" fill="#2B2119"><path transform="translate(0,0) scale(1,-1)" d="M-16 1198Q-16 1216 -14 1251.5Q-12 1287 -12 1300Q-12 1305 -14 1336Q-16 1367 -16 1390Q-16 1496 4 1496Q12 1496 18 1494Q227 1494 637.5 1499Q1048 1504 1252 1504Q1303 1504 1316.5 1495Q1330 1486 1330 1460V1432Q1330 1380 1331 1278.5Q1332 1177 1332 1124Q1332 1072 1304 1072Q1248 1072 1137 1074Q1026 1076 970 1076V4Q963 -26 936 -28Q901 -28 834 -27Q767 -26 732 -26Q730 -26 728 -28Q684 -28 604.5 -27Q525 -26 486 -26H426Q406 -28 368 -28L328 20Q328 172 338 472Q348 772 348 924Q348 931 347.5 947Q347 963 347 973Q347 983 345.5 998Q344 1013 340.5 1022.5Q337 1032 332 1041.5Q327 1051 318.5 1055.5Q310 1060 298 1060H12Q-16 1068 -16 1198Z"/>
      <path transform="translate(1492.72,0) scale(1,-1)" d="M-48 0Q14 229 89 465Q164 701 275.5 1029.5Q387 1358 428 1484Q440 1504 444 1508H612Q671 1508 786 1510Q901 1512 960 1512H1128Q1143 1512 1153 1511.5Q1163 1511 1177 1509Q1191 1507 1199.5 1503Q1208 1499 1214 1491Q1220 1483 1220 1472L1681 11Q1681 -9 1666.5 -16.5Q1652 -24 1612 -24H1520Q1480 -24 1401 -25Q1322 -26 1282 -26Q1270 -26 1233.5 -27.5Q1197 -29 1172 -28.5Q1147 -28 1116.5 -25.5Q1086 -23 1067.5 -14.5Q1049 -6 1044 8V74Q1034 124 1009 166Q984 208 956 208H612L560 -4Q549 -28 448 -28H368Q325 -28 240 -31Q155 -34 112 -34H84Q68 -34 33.5 -35Q-1 -36 -20 -36Q-28 -28 -48 0ZM646 607 674 560H740Q820 560 886.5 569.5Q953 579 953 600L824 1176Q806 1176 775.5 1108Q745 1040 726 954Z"/>
      <path transform="translate(3417.44,0) scale(1,-1)" d="M106 1468Q106 1479 118.5 1487.5Q131 1496 155 1500.5Q179 1505 203 1508Q227 1511 260.5 1512Q294 1513 316 1513Q338 1513 366.5 1512.5Q395 1512 400 1512H512Q545 1512 604.5 1514Q664 1516 692 1516Q1169 1516 1374 1352L1410 1320Q1427 1304 1448 1278.5Q1469 1253 1499.5 1201.5Q1530 1150 1554 1090Q1578 1030 1595 942Q1612 854 1612 760Q1612 614 1572 487Q1532 360 1462.5 267Q1393 174 1299.5 106.5Q1206 39 1097 5.5Q988 -28 872 -28H840Q797 -28 712 -26Q627 -24 584 -24Q333 -24 130 -32Q106 16 106 56ZM694 320Q754 320 802 333.5Q850 347 883 369Q916 391 941 425Q966 459 980.5 495Q995 531 1003.5 577.5Q1012 624 1015 665.5Q1018 707 1018 758V820Q1018 1004 945 1091.5Q872 1179 690 1184Q685 1173 674 1154Q663 1135 658 1124V1076Q658 1061 657 998Q644 328 694 320Z"/>
      <path transform="translate(5352.16,0) scale(1,-1)" d="M1528 536Q1511 386 1449 270.5Q1387 155 1290 82.5Q1193 10 1069.5 -27Q946 -64 800 -64Q664 -64 552 -34.5Q440 -5 363 44Q286 93 227 163.5Q168 234 133 308.5Q98 383 76.5 471.5Q55 560 47.5 636.5Q40 713 40 796V884Q50 1030 108 1146.5Q166 1263 249 1334.5Q332 1406 439 1453.5Q546 1501 647 1519.5Q748 1538 848 1538Q1009 1538 1132.5 1499.5Q1256 1461 1334 1391Q1412 1321 1456 1230.5Q1500 1140 1512 1028V932Q1512 900 1292 900Q1240 900 1147.5 902Q1055 904 1026 904Q1021 904 1011 903Q1001 902 996 902Q970 902 956.5 923.5Q943 945 938.5 976Q934 1007 927.5 1038Q921 1069 900.5 1090.5Q880 1112 844 1112Q808 1112 781 1100Q754 1088 738 1062.5Q722 1037 711.5 1011Q701 985 696.5 943.5Q692 902 690.5 873.5Q689 845 688 797.5Q687 750 686 728Q686 716 684 684Q682 652 682 632Q682 383 814 376Q850 376 873 402Q896 428 904.5 460Q913 492 924 527.5Q935 563 948 576H1492Q1525 573 1528 536Z"/>
      <path transform="translate(7194.88,0) scale(1,-1)" d="M-48 0Q14 229 89 465Q164 701 275.5 1029.5Q387 1358 428 1484Q440 1504 444 1508H612Q671 1508 786 1510Q901 1512 960 1512H1128Q1143 1512 1153 1511.5Q1163 1511 1177 1509Q1191 1507 1199.5 1503Q1208 1499 1214 1491Q1220 1483 1220 1472L1681 11Q1681 -9 1666.5 -16.5Q1652 -24 1612 -24H1520Q1480 -24 1401 -25Q1322 -26 1282 -26Q1270 -26 1233.5 -27.5Q1197 -29 1172 -28.5Q1147 -28 1116.5 -25.5Q1086 -23 1067.5 -14.5Q1049 -6 1044 8V74Q1034 124 1009 166Q984 208 956 208H612L560 -4Q549 -28 448 -28H368Q325 -28 240 -31Q155 -34 112 -34H84Q68 -34 33.5 -35Q-1 -36 -20 -36Q-28 -28 -48 0ZM646 607 674 560H740Q820 560 886.5 569.5Q953 579 953 600L824 1176Q806 1176 775.5 1108Q745 1040 726 954Z"/>
      <path transform="translate(9119.6,0) scale(1,-1)" d="M728 -60Q610 -55 516 -39.5Q422 -24 334.5 10.5Q247 45 187.5 97.5Q128 150 88.5 232Q49 314 40 422Q40 441 60 444Q66 442 80 442Q163 442 332 446Q501 450 584 450Q605 450 617 436.5Q629 423 636.5 403.5Q644 384 654.5 364.5Q665 345 690.5 331.5Q716 318 756 318Q805 318 842.5 345.5Q880 373 880 420Q880 451 848 477Q816 503 763.5 519.5Q711 536 663.5 547.5Q616 559 566 567.5Q516 576 508 578Q265 644 158.5 742Q52 840 52 1010Q52 1130 96 1225.5Q140 1321 211 1381.5Q282 1442 379 1482.5Q476 1523 575 1539.5Q674 1556 780 1556Q1061 1556 1228 1452Q1289 1391 1317.5 1359.5Q1346 1328 1372.5 1286Q1399 1244 1409.5 1203.5Q1420 1163 1424 1104L1388 1068Q1183 1060 928 1060Q896 1060 876.5 1067Q857 1074 850.5 1085Q844 1096 837.5 1108Q831 1120 825.5 1131Q820 1142 802.5 1149Q785 1156 756 1156Q748 1156 730.5 1153Q713 1150 689.5 1143.5Q666 1137 649 1123.5Q632 1110 632 1092Q632 1070 654.5 1052Q677 1034 702 1026Q727 1018 764 1008.5Q801 999 810 996Q1028 941 1070 928Q1289 859 1380 747Q1464 643 1464 486Q1464 391 1439.5 313Q1415 235 1375 181Q1335 127 1275 85Q1215 43 1153.5 18Q1092 -7 1014 -24Q936 -41 870.5 -48.5Q805 -56 728 -60Z"/>
      <path transform="translate(10890.32,0) scale(1,-1)" d="M-16 1198Q-16 1216 -14 1251.5Q-12 1287 -12 1300Q-12 1305 -14 1336Q-16 1367 -16 1390Q-16 1496 4 1496Q12 1496 18 1494Q227 1494 637.5 1499Q1048 1504 1252 1504Q1303 1504 1316.5 1495Q1330 1486 1330 1460V1432Q1330 1380 1331 1278.5Q1332 1177 1332 1124Q1332 1072 1304 1072Q1248 1072 1137 1074Q1026 1076 970 1076V4Q963 -26 936 -28Q901 -28 834 -27Q767 -26 732 -26Q730 -26 728 -28Q684 -28 604.5 -27Q525 -26 486 -26H426Q406 -28 368 -28L328 20Q328 172 338 472Q348 772 348 924Q348 931 347.5 947Q347 963 347 973Q347 983 345.5 998Q344 1013 340.5 1022.5Q337 1032 332 1041.5Q327 1051 318.5 1055.5Q310 1060 298 1060H12Q-16 1068 -16 1198Z"/>
      <path transform="translate(12495.04,0) scale(1,-1)" d="M92 36V74Q92 245 96 579Q100 913 100 1084V1498H1264V1170Q1264 1167 1264 1155Q1264 1143 1264 1139Q1264 1135 1263 1124.5Q1262 1114 1259.5 1110Q1257 1106 1252.5 1098.5Q1248 1091 1242 1088Q1236 1085 1226 1082.5Q1216 1080 1204 1080H1176Q917 1080 704 1088Q702 1072 697.5 1038.5Q693 1005 690.5 979.5Q688 954 688 930H1164Q1194 930 1204 922Q1214 914 1214 896Q1214 891 1213 880Q1212 869 1212 864Q1212 816 1215 722Q1218 628 1218 580Q1215 560 1202 560Q1196 560 1192 564Q876 548 724 548H698V404Q787 404 955.5 412Q1124 420 1208 420Q1274 420 1284 392V316Q1284 268 1286 174Q1288 80 1288 32Q1288 -18 1248 -18Q1196 -18 1088 -17Q980 -16 924 -16Q780 -16 512 -23.5Q244 -31 124 -32L96 0Q92 28 92 36Z"/>
      <path transform="translate(14087.76,0) scale(1,-1)" d="M1552 -4Q1530 -26 1459.5 -30Q1389 -34 1286 -28Q1183 -22 1176 -22Q1108 -22 1078 -20H978Q956 -13 941 45.5Q926 104 911.5 213.5Q897 323 896 330Q892 429 864 460.5Q836 492 762 492H718V4Q716 -8 697 -16Q678 -24 642.5 -26.5Q607 -29 579.5 -29.5Q552 -30 507 -29Q462 -28 452 -28H308Q186 -28 124 -30Q110 -24 96 -16V1476Q96 1504 176 1504H1048Q1275 1498 1393.5 1396Q1512 1294 1512 1108Q1512 866 1268 754Q1313 740 1349 715Q1385 690 1409 661.5Q1433 633 1451 593Q1469 553 1479 518Q1489 483 1496.5 435Q1504 387 1507 352Q1510 317 1514.5 268.5Q1519 220 1522 192V104Q1525 88 1540.5 59Q1556 30 1560 16Q1560 -4 1552 -4ZM712 1080Q712 1020 713 991Q714 962 724 915Q734 868 754 848Q796 848 833.5 857Q871 866 906 886Q941 906 961.5 945.5Q982 985 982 1040Q982 1071 971 1094.5Q960 1118 939 1132Q918 1146 897.5 1154.5Q877 1163 847.5 1166.5Q818 1170 801 1171Q784 1172 760 1172H736Q721 1165 716.5 1144Q712 1123 712 1080Z"/></g>
    </g>
</svg>
