<svg xmlns="http://www.w3.org/2000/svg" viewBox="0 0 3782.41 743.18" width="3782.41" height="743.18" role="img" aria-label="Tad Kebab tab — ORDER ONLINE">
  <title>Tad Kebab tab — ORDER ONLINE</title>
  <g transform="translate(1891.21,371.59) rotate(-3) translate(-1879.46,-273.6)"><rect width="3758.93" height="547.2" rx="87.55" fill="#D33A2C"/><g transform="translate(127.68,425.6) scale(0.2)" fill="#FBF2E2"><path transform="translate(0,0) scale(1,-1)" d="M24 752V862Q34 1002 85 1117.5Q136 1233 214.5 1312Q293 1391 396 1445.5Q499 1500 611.5 1525Q724 1550 844 1550Q910 1550 981.5 1539Q1053 1528 1133 1504Q1213 1480 1286.5 1433.5Q1360 1387 1408 1324Q1507 1203 1551.5 1070.5Q1596 938 1596 776Q1599 438 1448 232L1404 172Q1346 92 1238 38.5Q1130 -15 1022 -35.5Q914 -56 804 -56Q675 -56 566 -30Q457 -4 378 40Q299 84 237 147Q175 210 135.5 280Q96 350 70.5 432Q45 514 34.5 592Q24 670 24 752ZM820 1148Q779 1148 746.5 1129Q714 1110 693.5 1083Q673 1056 658 1010.5Q643 965 636 928.5Q629 892 625 836.5Q621 781 620.5 750.5Q620 720 620 672Q620 626 623.5 584.5Q627 543 638.5 496.5Q650 450 668.5 415.5Q687 381 719.5 357.5Q752 334 794 332Q838 332 872 346.5Q906 361 929 383.5Q952 406 968 444Q984 482 992.5 517Q1001 552 1005.5 604Q1010 656 1011 693.5Q1012 731 1012 788Q1012 830 1009.5 866Q1007 902 1001 946Q995 990 981 1023.5Q967 1057 947 1086.5Q927 1116 894.5 1132Q862 1148 820 1148Z"/>
      <path transform="translate(1705.44,0) scale(1,-1)" d="M1552 -4Q1530 -26 1459.5 -30Q1389 -34 1286 -28Q1183 -22 1176 -22Q1108 -22 1078 -20H978Q956 -13 941 45.5Q926 104 911.5 213.5Q897 323 896 330Q892 429 864 460.5Q836 492 762 492H718V4Q716 -8 697 -16Q678 -24 642.5 -26.5Q607 -29 579.5 -29.5Q552 -30 507 -29Q462 -28 452 -28H308Q186 -28 124 -30Q110 -24 96 -16V1476Q96 1504 176 1504H1048Q1275 1498 1393.5 1396Q1512 1294 1512 1108Q1512 866 1268 754Q1313 740 1349 715Q1385 690 1409 661.5Q1433 633 1451 593Q1469 553 1479 518Q1489 483 1496.5 435Q1504 387 1507 352Q1510 317 1514.5 268.5Q1519 220 1522 192V104Q1525 88 1540.5 59Q1556 30 1560 16Q1560 -4 1552 -4ZM712 1080Q712 1020 713 991Q714 962 724 915Q734 868 754 848Q796 848 833.5 857Q871 866 906 886Q941 906 961.5 945.5Q982 985 982 1040Q982 1071 971 1094.5Q960 1118 939 1132Q918 1146 897.5 1154.5Q877 1163 847.5 1166.5Q818 1170 801 1171Q784 1172 760 1172H736Q721 1165 716.5 1144Q712 1123 712 1080Z"/>
      <path transform="translate(3326.88,0) scale(1,-1)" d="M106 1468Q106 1479 118.5 1487.5Q131 1496 155 1500.5Q179 1505 203 1508Q227 1511 260.5 1512Q294 1513 316 1513Q338 1513 366.5 1512.5Q395 1512 400 1512H512Q545 1512 604.5 1514Q664 1516 692 1516Q1169 1516 1374 1352L1410 1320Q1427 1304 1448 1278.5Q1469 1253 1499.5 1201.5Q1530 1150 1554 1090Q1578 1030 1595 942Q1612 854 1612 760Q1612 614 1572 487Q1532 360 1462.5 267Q1393 174 1299.5 106.5Q1206 39 1097 5.5Q988 -28 872 -28H840Q797 -28 712 -26Q627 -24 584 -24Q333 -24 130 -32Q106 16 106 56ZM694 320Q754 320 802 333.5Q850 347 883 369Q916 391 941 425Q966 459 980.5 495Q995 531 1003.5 577.5Q1012 624 1015 665.5Q1018 707 1018 758V820Q1018 1004 945 1091.5Q872 1179 690 1184Q685 1173 674 1154Q663 1135 658 1124V1076Q658 1061 657 998Q644 328 694 320Z"/>
      <path transform="translate(5036.32,0) scale(1,-1)" d="M92 36V74Q92 245 96 579Q100 913 100 1084V1498H1264V1170Q1264 1167 1264 1155Q1264 1143 1264 1139Q1264 1135 1263 1124.5Q1262 1114 1259.5 1110Q1257 1106 1252.5 1098.5Q1248 1091 1242 1088Q1236 1085 1226 1082.5Q1216 1080 1204 1080H1176Q917 1080 704 1088Q702 1072 697.5 1038.5Q693 1005 690.5 979.5Q688 954 688 930H1164Q1194 930 1204 922Q1214 914 1214 896Q1214 891 1213 880Q1212 869 1212 864Q1212 816 1215 722Q1218 628 1218 580Q1215 560 1202 560Q1196 560 1192 564Q876 548 724 548H698V404Q787 404 955.5 412Q1124 420 1208 420Q1274 420 1284 392V316Q1284 268 1286 174Q1288 80 1288 32Q1288 -18 1248 -18Q1196 -18 1088 -17Q980 -16 924 -16Q780 -16 512 -23.5Q244 -31 124 -32L96 0Q92 28 92 36Z"/>
      <path transform="translate(6403.76,0) scale(1,-1)" d="M1552 -4Q1530 -26 1459.5 -30Q1389 -34 1286 -28Q1183 -22 1176 -22Q1108 -22 1078 -20H978Q956 -13 941 45.5Q926 104 911.5 213.5Q897 323 896 330Q892 429 864 460.5Q836 492 762 492H718V4Q716 -8 697 -16Q678 -24 642.5 -26.5Q607 -29 579.5 -29.5Q552 -30 507 -29Q462 -28 452 -28H308Q186 -28 124 -30Q110 -24 96 -16V1476Q96 1504 176 1504H1048Q1275 1498 1393.5 1396Q1512 1294 1512 1108Q1512 866 1268 754Q1313 740 1349 715Q1385 690 1409 661.5Q1433 633 1451 593Q1469 553 1479 518Q1489 483 1496.5 435Q1504 387 1507 352Q1510 317 1514.5 268.5Q1519 220 1522 192V104Q1525 88 1540.5 59Q1556 30 1560 16Q1560 -4 1552 -4ZM712 1080Q712 1020 713 991Q714 962 724 915Q734 868 754 848Q796 848 833.5 857Q871 866 906 886Q941 906 961.5 945.5Q982 985 982 1040Q982 1071 971 1094.5Q960 1118 939 1132Q918 1146 897.5 1154.5Q877 1163 847.5 1166.5Q818 1170 801 1171Q784 1172 760 1172H736Q721 1165 716.5 1144Q712 1123 712 1080Z"/>
      <path transform="translate(8702.64,0) scale(1,-1)" d="M24 752V862Q34 1002 85 1117.5Q136 1233 214.5 1312Q293 1391 396 1445.5Q499 1500 611.5 1525Q724 1550 844 1550Q910 1550 981.5 1539Q1053 1528 1133 1504Q1213 1480 1286.5 1433.5Q1360 1387 1408 1324Q1507 1203 1551.5 1070.5Q1596 938 1596 776Q1599 438 1448 232L1404 172Q1346 92 1238 38.5Q1130 -15 1022 -35.5Q914 -56 804 -56Q675 -56 566 -30Q457 -4 378 40Q299 84 237 147Q175 210 135.5 280Q96 350 70.5 432Q45 514 34.5 592Q24 670 24 752ZM820 1148Q779 1148 746.5 1129Q714 1110 693.5 1083Q673 1056 658 1010.5Q643 965 636 928.5Q629 892 625 836.5Q621 781 620.5 750.5Q620 720 620 672Q620 626 623.5 584.5Q627 543 638.5 496.5Q650 450 668.5 415.5Q687 381 719.5 357.5Q752 334 794 332Q838 332 872 346.5Q906 361 929 383.5Q952 406 968 444Q984 482 992.5 517Q1001 552 1005.5 604Q1010 656 1011 693.5Q1012 731 1012 788Q1012 830 1009.5 866Q1007 902 1001 946Q995 990 981 1023.5Q967 1057 947 1086.5Q927 1116 894.5 1132Q862 1148 820 1148Z"/>
      <path transform="translate(10408.08,0) scale(1,-1)" d="M80 -4V448Q78 696 96 1394V1476Q96 1498 104 1502H792Q802 1502 832.5 1426Q863 1350 906.5 1230.5Q950 1111 968 1066L1108 700V1088Q1108 1138 1110.5 1271.5Q1113 1405 1112 1480Q1112 1508 1272 1508Q1322 1508 1409 1506Q1496 1504 1516 1504H1592Q1608 1504 1608 1498Q1614 1220 1614 702V8Q1607 -18 1550 -18H1524Q1472 -18 1371 -20Q1270 -22 1218 -22H924Q910 -17 866 104Q819 235 726 483Q633 731 622 760Q622 701 621 584Q620 467 620 408Q620 364 622 276Q624 188 624 144V18Q624 -28 584 -28H124ZM1608 1500V1496Z"/>
      <path transform="translate(12195.52,0) scale(1,-1)" d="M102 1336Q102 1499 136 1518Q146 1516 164 1516H196Q227 1516 298 1518Q369 1520 406 1520Q548 1520 635.5 1508.5Q723 1497 734 1466L722 434H744Q824 438 856 437.5Q888 437 973.5 433.5Q1059 430 1138 430Q1203 430 1234.5 422.5Q1266 415 1266 392V8Q1253 -28 820 -28H128Q104 7 104 84V368Q104 493 106 738Q108 983 108 1108Q108 1131 105 1210Q102 1289 102 1336Z"/>
      <path transform="translate(13520.96,0) scale(1,-1)" d="M82 -26Q86 265 96 400Q96 820 108 1252Q104 1336 104 1376V1406Q100 1450 100 1478Q100 1497 118 1512Q282 1500 618 1500Q698 1500 728 1504V-26Z"/>
      <path transform="translate(14424.4,0) scale(1,-1)" d="M80 -4V448Q78 696 96 1394V1476Q96 1498 104 1502H792Q802 1502 832.5 1426Q863 1350 906.5 1230.5Q950 1111 968 1066L1108 700V1088Q1108 1138 1110.5 1271.5Q1113 1405 1112 1480Q1112 1508 1272 1508Q1322 1508 1409 1506Q1496 1504 1516 1504H1592Q1608 1504 1608 1498Q1614 1220 1614 702V8Q1607 -18 1550 -18H1524Q1472 -18 1371 -20Q1270 -22 1218 -22H924Q910 -17 866 104Q819 235 726 483Q633 731 622 760Q622 701 621 584Q620 467 620 408Q620 364 622 276Q624 188 624 144V18Q624 -28 584 -28H124ZM1608 1500V1496Z"/>
      <path transform="translate(16211.84,0) scale(1,-1)" d="M92 36V74Q92 245 96 579Q100 913 100 1084V1498H1264V1170Q1264 1167 1264 1155Q1264 1143 1264 1139Q1264 1135 1263 1124.5Q1262 1114 1259.5 1110Q1257 1106 1252.5 1098.5Q1248 1091 1242 1088Q1236 1085 1226 1082.5Q1216 1080 1204 1080H1176Q917 1080 704 1088Q702 1072 697.5 1038.5Q693 1005 690.5 979.5Q688 954 688 930H1164Q1194 930 1204 922Q1214 914 1214 896Q1214 891 1213 880Q1212 869 1212 864Q1212 816 1215 722Q1218 628 1218 580Q1215 560 1202 560Q1196 560 1192 564Q876 548 724 548H698V404Q787 404 955.5 412Q1124 420 1208 420Q1274 420 1284 392V316Q1284 268 1286 174Q1288 80 1288 32Q1288 -18 1248 -18Q1196 -18 1088 -17Q980 -16 924 -16Q780 -16 512 -23.5Q244 -31 124 -32L96 0Q92 28 92 36Z"/></g></g>
</svg>
