<svg xmlns="http://www.w3.org/2000/svg" viewBox="0 0 1024 1024" width="1024" height="1024" role="img" aria-label="Big Bites">
<title>Big Bites app icon</title>
<defs>
  <mask id="bigbites-favicon-icon-bite" maskUnits="userSpaceOnUse" x="0" y="0" width="1024" height="1024">
    <rect width="1024" height="1024" fill="#fff"/>
    <circle cx="868" cy="148" r="168" fill="#000"/>
  </mask>
</defs>
<rect x="0" y="0" width="1024" height="1024" rx="122.88" ry="122.88" fill="#F7C61A" mask="url(#bigbites-favicon-icon-bite)"/>
<path d="M1215 356Q1215 273 1184.5 213Q1154 153 1103 111Q1052 69 985.5 42.5Q919 16 847 1Q775 -14 702.5 -19Q630 -24 567 -24Q505 -24 438.5 -19.5Q372 -15 306 -4Q240 7 176 25.5Q112 44 55 72L53 1360Q109 1383 172 1401.5Q235 1420 300.5 1432.5Q366 1445 431 1451.5Q496 1458 557 1458Q628 1458 700.5 1449Q773 1440 840 1419Q907 1398 965 1364.5Q1023 1331 1066.5 1282Q1110 1233 1134.5 1168Q1159 1103 1159 1018Q1159 962 1143 913Q1127 864 1097 825Q1067 786 1024 758.5Q981 731 927 718Q992 701 1045.5 668Q1099 635 1136.5 588Q1174 541 1194.5 482Q1215 423 1215 356ZM707 926Q707 955 695 975.5Q683 996 665.5 1009Q648 1022 627.5 1028Q607 1034 591 1034Q571 1034 552 1028Q533 1022 515 1014L509 792Q532 792 566 796Q600 800 631.5 813.5Q663 827 685 853.5Q707 880 707 926ZM565 600Q536 600 509 594L505 366Q520 363 534.5 360.5Q549 358 563 358Q584 358 609 362.5Q634 367 656 380.5Q678 394 692.5 417Q707 440 707 478Q707 516 692.5 540Q678 564 657 577.5Q636 591 611 595.5Q586 600 565 600Z" transform="translate(310.93 739.39) scale(0.31714 -0.31714)" fill="#E32619" stroke="#A81409" stroke-width="81.98" stroke-linejoin="round"/>
</svg>
